<svg width="108" height="108" viewBox="0 0 108 108" fill="none" xmlns="http://www.w3.org/2000/svg">
<path d="M54 27.3332C56.9333 27.3332 59.3333 29.7332 59.3333 32.6665V53.9998C59.3333 56.9332 56.9333 59.3332 54 59.3332C51.0666 59.3332 48.6666 56.9332 48.6666 53.9998V32.6665C48.6666 29.7332 51.0666 27.3332 54 27.3332ZM53.9466 0.666504C24.5066 0.666504 0.666626 24.5598 0.666626 53.9998C0.666626 83.4398 24.5066 107.333 53.9466 107.333C83.44 107.333 107.333 83.4398 107.333 53.9998C107.333 24.5598 83.44 0.666504 53.9466 0.666504ZM54 96.6665C30.4266 96.6665 11.3333 77.5732 11.3333 53.9998C11.3333 30.4265 30.4266 11.3332 54 11.3332C77.5733 11.3332 96.6666 30.4265 96.6666 53.9998C96.6666 77.5732 77.5733 96.6665 54 96.6665ZM59.3333 80.6665H48.6666V69.9998H59.3333V80.6665Z" fill="#22004C"/>
</svg>
