<svg width="107" height="108" viewBox="0 0 107 108" fill="none" xmlns="http://www.w3.org/2000/svg">
<path d="M53.4998 27.3332C56.4332 27.3332 58.8332 29.7332 58.8332 32.6665V53.9998C58.8332 56.9332 56.4332 59.3332 53.4998 59.3332C50.5665 59.3332 48.1665 56.9332 48.1665 53.9998V32.6665C48.1665 29.7332 50.5665 27.3332 53.4998 27.3332ZM53.4465 0.666504C24.0065 0.666504 0.166504 24.5598 0.166504 53.9998C0.166504 83.4398 24.0065 107.333 53.4465 107.333C82.9398 107.333 106.833 83.4398 106.833 53.9998C106.833 24.5598 82.9398 0.666504 53.4465 0.666504ZM53.4998 96.6665C29.9265 96.6665 10.8332 77.5732 10.8332 53.9998C10.8332 30.4265 29.9265 11.3332 53.4998 11.3332C77.0732 11.3332 96.1665 30.4265 96.1665 53.9998C96.1665 77.5732 77.0732 96.6665 53.4998 96.6665ZM58.8332 80.6665H48.1665V69.9998H58.8332V80.6665Z" fill="#22004C"/>
</svg>
