<svg width="24" height="16" viewBox="0 0 24 16" fill="none" xmlns="http://www.w3.org/2000/svg">
<path d="M10.6667 16H13.3333C14.0667 16 14.6667 15.4 14.6667 14.6667C14.6667 13.9333 14.0667 13.3333 13.3333 13.3333H10.6667C9.93333 13.3333 9.33333 13.9333 9.33333 14.6667C9.33333 15.4 9.93333 16 10.6667 16ZM0 1.33333C0 2.06667 0.6 2.66667 1.33333 2.66667H22.6667C23.4 2.66667 24 2.06667 24 1.33333C24 0.6 23.4 0 22.6667 0H1.33333C0.6 0 0 0.6 0 1.33333ZM5.33333 9.33333H18.6667C19.4 9.33333 20 8.73333 20 8C20 7.26667 19.4 6.66667 18.6667 6.66667H5.33333C4.6 6.66667 4 7.26667 4 8C4 8.73333 4.6 9.33333 5.33333 9.33333Z" fill="white"/>
</svg>
