<svg width="451" height="120" viewBox="0 0 451 120" fill="none" xmlns="http://www.w3.org/2000/svg">
<path d="M184.643 78.4691C184.643 67.7652 184.643 57.1003 184.643 46.3964C184.643 45.6958 184.604 44.9952 184.721 44.3335C185.072 41.7645 186.395 39.9352 188.926 39.0788C196.984 36.2764 205.237 34.4081 213.763 33.7075C219.758 33.2015 225.753 33.2404 231.709 34.1356C236.069 34.7973 240.274 35.965 244.167 38.0279C251.797 42.037 256.04 48.4593 257.481 56.8667C257.87 59.0464 257.987 61.2261 257.987 63.4058C257.987 79.3643 257.987 95.2838 257.987 111.242C257.987 111.554 257.987 111.865 257.987 112.176C257.909 114.434 256.897 115.524 254.639 115.563C249.889 115.602 245.14 115.602 240.391 115.563C238.249 115.563 237.198 114.473 237.043 112.332C237.004 111.787 237.043 111.203 237.043 110.658C237.043 96.1401 237.043 81.6607 237.043 67.1424C237.043 65.2741 236.926 63.3669 236.342 61.5764C234.746 56.8278 231.203 54.3367 226.532 53.2858C222.678 52.4295 218.824 52.7019 214.931 53.0912C213.14 53.2469 211.349 53.6361 209.597 54.0642C206.561 54.7649 205.665 55.9326 205.665 59.0464C205.665 76.2894 205.665 93.5712 205.665 110.814C205.665 111.32 205.665 111.826 205.665 112.332C205.587 114.434 204.497 115.563 202.356 115.602C199.865 115.641 197.334 115.602 194.843 115.602C192.663 115.602 190.444 115.641 188.264 115.602C185.694 115.563 184.643 114.473 184.643 111.904C184.643 100.733 184.643 89.6011 184.643 78.4691Z" fill="#F4F2F7"/>
<path d="M64.7011 115.563C62.3264 115.563 59.9517 115.602 57.577 115.563C55.1633 115.524 54.3458 114.434 55.0076 112.021C55.4748 110.269 55.8641 108.518 55.903 106.688C55.9809 102.056 54.0733 98.4755 50.375 95.8287C47.6499 93.8826 44.6134 92.5592 41.4601 91.5472C36.2435 89.8735 30.9491 88.3166 25.7325 86.6429C21.4892 85.2806 17.4405 83.5679 13.7422 81.0379C7.51343 76.7564 4.39906 70.8401 4.0487 63.3279C3.38689 49.7437 10.9392 39.7405 23.3578 35.3033C29.0805 33.2793 35.0367 32.5786 41.0708 32.7343C50.6864 33.0068 59.9127 34.914 68.633 39.0399C69.8787 39.6237 71.0855 40.2465 72.2924 40.9471C74.7839 42.3483 75.4067 44.0999 74.3556 46.7467C73.9663 47.7197 73.4992 48.6928 73.071 49.6659C71.8641 52.1959 70.6963 54.7648 69.4505 57.2948C68.049 60.1751 65.7911 60.9536 62.9882 59.4356C58.3166 56.9056 53.4893 54.7259 48.2728 53.4804C43.173 52.2737 38.0343 51.7677 32.8566 52.9354C31.2605 53.2857 29.7423 53.8696 28.3797 54.8037C24.4089 57.5673 24.2532 62.3938 28.0294 65.3908C29.7033 66.7142 31.6498 67.5705 33.6742 68.3101C38.5404 70.1005 43.6012 71.3072 48.5453 72.8252C53.139 74.2264 57.6938 75.8222 61.9371 78.1187C64.8568 79.7145 67.5819 81.5829 69.9177 83.9572C74.8617 88.9782 77.0029 95.167 77.1975 102.095C77.3143 105.209 77.0418 108.323 76.1853 111.359C76.0686 111.826 75.9128 112.332 75.7571 112.799C74.9785 114.901 74.0442 115.563 71.8252 115.602C69.4505 115.602 67.0758 115.563 64.7011 115.563Z" fill="#F4F2F7"/>
<path d="M370.182 72.8252C370.182 60.4476 370.143 48.0701 370.182 35.6925C370.182 30.2044 371.038 24.8719 373.219 19.773C377.034 10.9374 383.963 5.8774 393.189 3.81448C399.691 2.37432 406.231 2.37432 412.732 3.73663C412.849 3.77555 412.966 3.77555 413.082 3.81448C416.275 4.55402 416.975 5.60494 416.353 8.87448C415.808 11.7159 415.301 14.5183 414.756 17.3208C414.211 20.24 413.199 20.9796 410.202 20.5514C407.866 20.24 405.491 19.8119 403.117 19.8508C401.793 19.8897 400.469 20.0454 399.224 20.3568C394.474 21.4856 391.71 24.9497 391.165 30.2044C391.048 31.3331 391.009 32.4619 390.97 33.5907C390.932 34.9141 390.932 34.953 392.255 34.953C395.837 34.953 399.379 34.953 402.961 34.953C405.608 34.953 408.216 34.953 410.864 34.953C413.705 34.953 414.679 35.965 414.718 38.8064C414.756 42.1927 414.756 45.5401 414.718 48.9264C414.718 51.7678 413.705 52.7019 410.825 52.7019C404.868 52.7019 398.951 52.7019 392.995 52.7019C392.567 52.7019 392.138 52.7019 391.671 52.7019C391.204 52.7019 391.009 52.9355 391.009 53.4025C391.009 53.9085 391.009 54.4145 391.009 54.9205C391.009 73.6037 390.97 92.2868 391.048 111.009C391.048 114.123 390.27 115.68 386.532 115.563C382.406 115.446 378.279 115.446 374.153 115.563C371.272 115.641 370.143 113.967 370.182 111.593C370.221 98.7091 370.182 85.7477 370.182 72.8252Z" fill="#F4F2F7"/>
<path d="M447.574 75.2384C447.574 87.0321 447.574 98.8647 447.574 110.658C447.574 111.048 447.574 111.398 447.574 111.787C447.535 114.59 446.562 115.563 443.681 115.563C440.061 115.563 436.44 115.563 432.781 115.563C431.769 115.563 430.796 115.602 429.783 115.563C427.876 115.485 426.786 114.473 426.591 112.566C426.513 112.021 426.552 111.437 426.552 110.892C426.552 87.1489 426.552 63.4058 426.552 39.6237C426.552 35.8093 427.409 34.9919 431.146 34.9919C435.35 34.9919 439.516 34.9919 443.72 34.9919C446.523 34.9919 447.535 36.0039 447.574 38.8453C447.574 50.9893 447.574 63.0944 447.574 75.2384Z" fill="#F4F2F7"/>
<path d="M448.236 14.0123C448.275 19.3448 445.628 23.2371 440.995 24.5605C438.426 25.3 435.817 25.2611 433.248 24.5216C428.07 23.0036 425.696 18.6831 425.851 13.2728C425.89 12.4165 426.007 11.5213 426.202 10.6649C427.175 6.65586 429.667 4.08693 433.676 3.15278C436.324 2.53001 439.01 2.64678 441.618 3.58093C445.706 5.06001 447.691 8.13494 448.197 12.3386C448.275 12.8836 448.236 13.4674 448.236 14.0123Z" fill="#F4F2F7"/>
<path d="M25.1875 105.988C25.1096 107.194 25.0707 108.284 24.7982 109.413C23.6692 113.656 20.9052 116.147 16.6619 116.964C14.4429 117.392 12.185 117.275 10.0049 116.575C6.54015 115.446 4.20437 113.188 3.27006 109.646C2.56933 107 2.60826 104.314 3.46471 101.706C4.59367 98.3198 6.96838 96.179 10.4331 95.2838C12.8468 94.661 15.2604 94.7389 17.674 95.3616C21.8784 96.4515 24.7203 99.8378 25.1096 104.197C25.1485 104.82 25.1875 105.443 25.1875 105.988Z" fill="#F4F2F7"/>
<path d="M165.062 45.2286C164.906 42.2316 163.582 40.1297 160.624 39.1956C160.429 39.1566 160.273 39.0788 160.079 39.0009C152.293 36.1206 144.312 34.2523 136.02 33.6296C130.142 33.2014 124.263 33.1625 118.502 34.5248C104.293 37.8722 94.5601 46.2796 90.0443 60.253C86.5406 71.1125 86.9299 82.0888 90.5504 92.8316C93.2365 100.85 98.2195 107.194 105.616 111.515C111.456 114.94 117.84 116.575 124.497 116.964C132.166 117.431 139.719 116.847 147.232 115.135C151.942 114.045 156.497 112.566 160.935 110.697C163.427 109.646 164.789 107.817 165.023 105.131C165.062 104.509 165.062 103.886 165.062 103.263C165.062 93.8436 165.062 84.3853 165.062 74.9659C165.062 65.5854 165.062 56.205 165.062 46.8634C165.062 46.3574 165.101 45.7736 165.062 45.2286ZM141.12 95.9844C135.203 97.8527 129.13 98.6312 123.018 97.0353C116.945 95.4395 112.818 91.5472 110.794 85.6698C108.419 78.8582 108.38 71.891 110.755 65.0794C113.402 57.5284 119.047 53.5971 126.95 52.8965C131.154 52.5462 135.319 52.9354 139.407 54.0253C139.874 54.142 140.38 54.2977 140.847 54.4534C143.261 55.3487 144.079 56.4774 144.118 59.0853C144.156 64.5345 144.118 69.9448 144.118 75.3941C144.118 80.7655 144.079 86.1369 144.118 91.5083C144.118 93.7658 143.183 95.3227 141.12 95.9844Z" fill="#F4F2F7"/>
<path d="M352.858 61.9656C349.277 49.5102 341.647 40.6358 329.423 36.0818C321.637 33.2014 313.578 32.6565 305.403 34.1356C293.101 36.3542 283.797 42.8933 278.269 54.1421C272.118 66.6753 271.807 79.6757 276.634 92.676C280.8 103.925 288.897 111.32 300.264 115.057C307.077 117.275 314.123 117.742 321.209 116.692C333.861 114.862 343.437 108.44 349.51 97.1522C353.17 90.3406 354.571 82.9841 354.61 73.6815C354.571 70.7623 354.104 66.325 352.858 61.9656ZM331.408 86.2148C328.255 94.8168 320.741 98.4755 312.488 97.6971C310.347 97.5025 308.284 97.1132 306.298 96.2958C301.51 94.3108 298.279 90.8077 296.566 85.9812C294.036 78.7804 294.036 71.5018 296.644 64.34C299.369 56.8278 305.676 52.663 313.695 52.7798C315.564 52.8187 317.432 52.9744 319.262 53.4415C325.218 54.9984 329.306 58.6961 331.408 64.3789C334.055 71.6575 334.055 79.014 331.408 86.2148Z" fill="#F4F2F7"/>
</svg>
