<svg width="16" height="15" viewBox="0 0 16 15" fill="none" xmlns="http://www.w3.org/2000/svg">
<path d="M1.72543 14.5001H14.2754C15.5588 14.5001 16.3588 13.1084 15.7171 12.0001L9.44209 1.1584C8.80043 0.0500651 7.20043 0.0500651 6.55876 1.1584L0.28376 12.0001C-0.357907 13.1084 0.442093 14.5001 1.72543 14.5001ZM8.00043 8.66673C7.54209 8.66673 7.16709 8.29173 7.16709 7.8334V6.16673C7.16709 5.7084 7.54209 5.3334 8.00043 5.3334C8.45876 5.3334 8.83376 5.7084 8.83376 6.16673V7.8334C8.83376 8.29173 8.45876 8.66673 8.00043 8.66673ZM8.83376 12.0001H7.16709V10.3334H8.83376V12.0001Z" fill="#CF483E"/>
</svg>
