<svg width="75" height="85" viewBox="0 0 75 85" fill="none" xmlns="http://www.w3.org/2000/svg">
<path d="M61.9211 82.8493C59.5464 82.8493 57.1717 82.8882 54.797 82.8493C52.3834 82.8104 51.5658 81.7205 52.2276 79.3073C52.6948 77.5558 53.0841 75.8042 53.123 73.9748C53.2009 69.343 51.2933 65.7621 47.595 63.1153C44.8699 61.1691 41.8334 59.8457 38.6801 58.8337C33.4635 57.16 28.1691 55.6031 22.9525 53.9294C18.7092 52.5671 14.6605 50.8545 10.9622 48.3245C4.73347 44.0429 1.61909 38.1266 1.26873 30.6145C0.606924 17.0303 8.15928 7.02705 20.5778 2.58982C26.3005 0.565815 32.2567 -0.1348 38.2908 0.0208923C47.9064 0.293354 57.1328 2.20059 65.853 6.32644C67.0988 6.91029 68.3056 7.53306 69.5124 8.23367C72.0039 9.6349 72.6268 11.3864 71.5757 14.0332C71.1864 15.0063 70.7192 15.9794 70.291 16.9525C69.0842 19.4825 67.9163 22.0514 66.6705 24.5814C65.2691 27.4617 63.0112 28.2402 60.2082 26.7222C55.5367 24.1922 50.7094 22.0125 45.4928 20.7669C40.393 19.5603 35.2543 19.0543 30.0767 20.222C28.4806 20.5723 26.9623 21.1562 25.5998 22.0903C21.6289 24.8538 21.4732 29.6803 25.2494 32.6774C26.9234 34.0008 28.8698 34.8571 30.8942 35.5966C35.7604 37.3871 40.8213 38.5937 45.7653 40.1117C50.359 41.5129 54.9138 43.1088 59.1571 45.4053C62.0768 47.0011 64.8019 48.8694 67.1377 51.2437C72.0818 56.2648 74.2229 62.4536 74.4175 69.3819C74.5343 72.4957 74.2618 75.6096 73.4054 78.6456C73.2886 79.1127 73.1329 79.6187 72.9771 80.0858C72.1986 82.1876 71.2642 82.8493 69.0452 82.8882C66.6705 82.8882 64.2958 82.8493 61.9211 82.8493Z" fill="#F4F2F7"/>
<path d="M22.4073 73.2742C22.3294 74.4808 22.2905 75.5707 22.018 76.6995C20.889 80.9421 18.125 83.4331 13.8817 84.2505C11.6627 84.6787 9.4048 84.5619 7.22474 83.8613C3.76 82.7325 1.42422 80.475 0.489909 76.933C-0.210824 74.2862 -0.171895 71.6005 0.684558 68.9927C1.81352 65.6064 4.18823 63.4656 7.65296 62.5704C10.0666 61.9476 12.4802 62.0254 14.8939 62.6482C19.0983 63.738 21.9401 67.1244 22.3294 71.4838C22.3684 72.1065 22.4073 72.7293 22.4073 73.2742Z" fill="#7A01E6"/>
</svg>
